<svg xmlns="http://www.w3.org/2000/svg" xmlns:xlink="http://www.w3.org/1999/xlink" width="1160" zoomAndPan="magnify" viewBox="0 0 870 275.25" height="367" preserveAspectRatio="xMidYMid meet" version="1.0"><defs><g/></defs><g fill="#000000" fill-opacity="1"><g transform="translate(61.460206, 202.889884)"><g><path d="M 215.757812 1.511719 C 221.300781 1.511719 226.34375 0 231.386719 -3.023438 C 241.46875 -8.820312 250.035156 -16.636719 256.84375 -26.214844 C 257.09375 -26.464844 257.347656 -27.222656 257.597656 -27.472656 C 258.605469 -29.238281 257.851562 -31.507812 256.085938 -32.515625 C 255.328125 -33.019531 254.574219 -33.019531 254.070312 -33.019531 C 253.3125 -33.019531 252.808594 -33.019531 252.304688 -32.515625 C 250.289062 -30.5 248.273438 -28.230469 246.507812 -25.960938 C 242.222656 -20.667969 236.679688 -15.878906 229.621094 -11.089844 C 225.839844 -8.820312 222.5625 -7.308594 218.78125 -6.554688 C 218.027344 -6.554688 217.269531 -6.300781 216.515625 -6.300781 C 210.210938 -6.300781 205.171875 -11.089844 204.917969 -17.390625 C 204.667969 -22.9375 205.421875 -28.480469 206.9375 -34.277344 C 209.960938 -46.378906 215.253906 -57.214844 220.546875 -67.296875 C 229.367188 -84.1875 239.703125 -101.074219 251.800781 -118.96875 C 258.859375 -129.304688 265.410156 -139.890625 271.714844 -150.222656 C 273.980469 -153.753906 276 -157.535156 278.015625 -161.3125 C 279.273438 -163.332031 280.28125 -165.597656 281.542969 -167.867188 C 282.300781 -168.875 282.300781 -169.882812 282.046875 -170.890625 C 281.796875 -172.152344 280.535156 -173.160156 279.273438 -173.917969 C 278.265625 -174.421875 277.007812 -174.671875 276 -174.671875 C 275.496094 -174.671875 274.738281 -174.421875 274.234375 -174.421875 C 272.21875 -173.664062 270.453125 -172.910156 268.941406 -172.152344 C 268.183594 -171.648438 267.429688 -171.144531 266.925781 -170.640625 C 262.890625 -167.867188 259.109375 -165.347656 255.835938 -162.574219 C 243.484375 -151.230469 231.890625 -139.890625 223.066406 -131.320312 C 218.027344 -126.027344 213.488281 -121.238281 209.707031 -116.449219 C 201.644531 -106.617188 193.578125 -96.285156 186.015625 -86.453125 C 182.234375 -81.917969 178.453125 -76.875 174.671875 -72.085938 C 163.078125 -57.71875 153.5 -45.621094 143.671875 -33.269531 C 142.664062 -32.011719 141.402344 -31.003906 140.394531 -30.246094 C 139.890625 -29.996094 139.636719 -29.996094 139.386719 -29.742188 C 138.628906 -29.238281 137.621094 -28.734375 136.613281 -28.734375 C 135.855469 -28.734375 134.847656 -28.984375 134.34375 -29.488281 C 132.832031 -30.246094 131.570312 -32.011719 131.824219 -34.277344 C 132.074219 -34.53125 132.074219 -34.785156 132.074219 -35.035156 C 132.074219 -36.296875 132.328125 -37.808594 132.832031 -39.320312 C 133.589844 -41.085938 134.09375 -42.597656 134.597656 -44.363281 C 137.117188 -51.417969 139.636719 -58.726562 142.410156 -66.039062 C 146.945312 -77.632812 150.980469 -88.21875 155.515625 -98.804688 C 162.070312 -113.171875 168.625 -128.042969 174.925781 -142.15625 C 177.949219 -148.964844 181.226562 -155.769531 184.25 -162.828125 C 184.753906 -163.582031 185.007812 -164.339844 185.007812 -165.09375 C 185.257812 -165.851562 185.007812 -166.605469 184.503906 -167.617188 C 183.496094 -168.625 182.488281 -169.378906 181.226562 -169.632812 C 179.714844 -169.882812 178.453125 -170.136719 176.941406 -170.136719 C 173.917969 -170.136719 170.890625 -169.378906 167.867188 -168.121094 C 162.324219 -165.597656 157.28125 -161.816406 153.25 -156.777344 C 148.207031 -150.980469 144.175781 -145.9375 140.898438 -141.148438 C 134.34375 -131.320312 128.296875 -120.984375 122.496094 -109.140625 C 112.164062 -87.964844 101.828125 -69.820312 91.242188 -53.6875 C 85.699219 -45.117188 79.398438 -36.800781 72.589844 -28.984375 C 66.039062 -20.921875 58.222656 -14.871094 49.65625 -10.335938 C 46.125 -8.570312 42.847656 -7.8125 39.320312 -7.8125 C 34.277344 -7.8125 29.488281 -9.578125 25.457031 -12.855469 C 20.667969 -16.886719 17.390625 -21.929688 15.628906 -27.976562 C 14.617188 -32.011719 14.113281 -36.546875 14.367188 -41.335938 C 14.617188 -48.898438 15.878906 -56.710938 18.652344 -64.777344 C 25.457031 -83.933594 37.554688 -98.046875 54.949219 -107.121094 C 55.703125 -107.625 56.460938 -107.878906 57.214844 -108.382812 C 58.476562 -108.886719 59.738281 -109.390625 60.746094 -110.148438 C 61.5 -110.398438 62.003906 -111.15625 62.003906 -112.164062 C 62.257812 -113.425781 62.003906 -114.433594 61.25 -115.1875 C 60.492188 -116.195312 59.484375 -116.699219 58.222656 -116.699219 C 57.972656 -116.699219 57.71875 -116.699219 57.46875 -116.699219 C 46.628906 -112.667969 37.304688 -106.367188 28.230469 -96.789062 C 18.902344 -86.453125 12.097656 -73.347656 8.066406 -56.460938 C 6.300781 -49.148438 5.796875 -42.597656 6.300781 -36.296875 C 7.308594 -22.179688 12.601562 -11.847656 22.433594 -5.292969 C 27.726562 -1.261719 33.523438 0.503906 39.066406 0.503906 C 43.351562 0.503906 47.386719 -0.503906 51.671875 -2.519531 C 59.484375 -6.300781 65.785156 -10.839844 71.078125 -15.878906 C 79.144531 -23.691406 86.707031 -32.515625 93.007812 -42.09375 C 106.113281 -61.25 117.707031 -81.160156 127.539062 -101.324219 C 134.09375 -114.683594 140.644531 -126.277344 147.199219 -136.109375 C 149.71875 -139.636719 152.238281 -143.167969 155.011719 -146.441406 C 155.265625 -146.945312 155.769531 -147.449219 156.273438 -148.207031 C 157.027344 -149.214844 158.289062 -149.972656 159.296875 -150.726562 C 159.296875 -150.726562 159.550781 -150.980469 159.800781 -150.980469 C 160.304688 -151.484375 161.3125 -151.734375 162.070312 -151.734375 C 163.078125 -151.734375 164.085938 -151.484375 164.589844 -150.980469 C 166.355469 -149.972656 167.617188 -147.957031 167.109375 -145.6875 L 166.605469 -144.929688 C 166.101562 -142.914062 165.347656 -141.148438 164.589844 -139.132812 C 162.070312 -133.335938 159.550781 -127.285156 157.027344 -121.488281 C 152.492188 -110.902344 147.703125 -100.066406 143.167969 -89.226562 C 140.898438 -83.933594 138.628906 -78.136719 136.613281 -72.84375 C 135.101562 -68.558594 133.335938 -64.023438 131.570312 -59.738281 C 127.539062 -49.65625 123.757812 -38.058594 120.230469 -24.703125 C 119.222656 -21.171875 118.464844 -17.140625 117.960938 -12.097656 C 117.960938 -10.082031 118.464844 -7.8125 118.96875 -5.292969 C 118.96875 -4.535156 120.734375 -3.277344 121.992188 -3.277344 C 122.246094 -3.277344 122.246094 -3.277344 122.496094 -3.277344 C 125.019531 -3.277344 127.035156 -4.03125 128.546875 -5.546875 C 129.304688 -6.300781 130.058594 -7.058594 131.066406 -7.8125 C 133.839844 -10.585938 136.863281 -13.609375 139.636719 -16.636719 C 147.703125 -25.710938 155.515625 -34.785156 162.828125 -44.109375 C 177.445312 -62.507812 192.066406 -81.160156 206.429688 -99.308594 L 212.480469 -107.121094 C 219.035156 -115.441406 226.597656 -123.757812 236.679688 -133.335938 C 238.441406 -135.351562 240.710938 -137.117188 242.726562 -138.628906 C 243.734375 -139.386719 244.742188 -140.140625 245.5 -140.644531 C 246.257812 -141.402344 247.011719 -141.652344 247.769531 -141.652344 C 248.273438 -141.652344 249.027344 -141.402344 249.53125 -141.148438 C 250.792969 -140.644531 251.550781 -139.386719 251.550781 -137.875 C 251.550781 -137.875 251.550781 -137.621094 251.800781 -137.367188 C 251.800781 -136.359375 251.800781 -134.847656 251.046875 -133.085938 C 249.785156 -130.5625 248.273438 -127.789062 246.507812 -125.019531 C 244.492188 -122.246094 242.726562 -119.472656 240.960938 -116.699219 C 238.441406 -112.917969 235.667969 -109.140625 233.402344 -105.105469 C 221.554688 -86.707031 213.488281 -71.835938 206.9375 -57.214844 C 202.398438 -47.386719 197.863281 -35.539062 197.105469 -22.683594 C 196.855469 -19.40625 196.855469 -16.382812 197.359375 -13.359375 C 198.113281 -7.5625 204.917969 1.007812 214.246094 1.511719 C 214.75 1.511719 215.253906 1.511719 215.757812 1.511719 Z M 215.757812 1.511719 "/></g></g></g><g fill="#000000" fill-opacity="1"><g transform="translate(316.53794, 202.889884)"><g><path d="M 0.253906 1.261719 C 1.261719 1.261719 1.765625 1.261719 2.269531 1.261719 C 5.292969 0.253906 8.316406 -1.007812 11.089844 -2.773438 C 13.359375 -4.285156 15.878906 -6.050781 18.148438 -7.8125 C 19.40625 -8.570312 20.667969 -9.578125 21.675781 -10.335938 C 22.179688 -10.839844 22.9375 -11.089844 23.441406 -11.34375 C 23.441406 -11.59375 23.691406 -11.59375 23.945312 -11.59375 C 24.449219 -12.097656 25.207031 -12.351562 25.960938 -12.351562 C 26.464844 -12.351562 26.96875 -12.097656 27.472656 -11.847656 C 28.480469 -11.34375 29.488281 -10.335938 29.488281 -9.074219 C 30.246094 -5.796875 31.757812 -3.277344 35.289062 -0.757812 C 37.304688 0.503906 39.574219 1.261719 42.09375 1.261719 C 43.605469 1.261719 45.371094 1.007812 47.132812 0.503906 C 49.402344 -0.253906 51.921875 -1.261719 54.695312 -3.023438 C 58.476562 -5.546875 62.507812 -8.570312 66.039062 -11.34375 L 66.542969 -11.59375 C 70.574219 -14.871094 74.859375 -18.652344 79.648438 -23.945312 C 81.414062 -25.710938 82.925781 -27.472656 84.1875 -28.984375 C 85.195312 -29.996094 85.949219 -31.003906 86.957031 -31.757812 C 89.226562 -34.53125 91.746094 -37.304688 94.015625 -40.078125 C 94.773438 -40.832031 95.023438 -41.839844 95.023438 -42.597656 C 94.773438 -43.605469 94.269531 -44.613281 93.511719 -45.117188 C 93.007812 -45.875 92 -46.125 91.242188 -46.125 C 90.234375 -46.125 88.976562 -45.621094 88.21875 -44.613281 C 84.1875 -39.824219 79.902344 -35.035156 75.363281 -29.996094 C 73.851562 -28.230469 72.085938 -26.71875 70.574219 -25.207031 C 68.808594 -23.691406 67.046875 -21.929688 65.03125 -20.164062 C 64.023438 -19.15625 62.761719 -18.148438 61.5 -17.140625 C 56.710938 -12.855469 51.921875 -9.578125 46.628906 -7.058594 C 45.371094 -6.554688 44.363281 -6.300781 43.101562 -6.300781 C 42.847656 -6.050781 42.597656 -6.050781 42.34375 -6.050781 C 40.078125 -6.050781 38.5625 -7.058594 38.058594 -8.066406 C 37.304688 -8.820312 36.546875 -10.335938 36.800781 -12.855469 C 37.304688 -15.125 38.3125 -17.390625 39.320312 -19.15625 C 40.832031 -21.675781 42.597656 -24.195312 44.867188 -27.222656 C 46.125 -28.734375 47.636719 -30.5 48.898438 -32.011719 C 50.160156 -33.523438 51.671875 -35.035156 52.929688 -36.546875 C 53.9375 -37.808594 54.695312 -39.066406 54.949219 -40.328125 C 55.453125 -41.589844 54.949219 -43.351562 53.6875 -44.109375 C 53.183594 -44.613281 52.175781 -44.867188 51.417969 -44.867188 C 50.914062 -44.867188 50.160156 -44.867188 49.65625 -44.363281 C 48.140625 -43.351562 46.882812 -42.597656 45.875 -41.589844 C 42.34375 -38.5625 38.5625 -35.035156 35.035156 -32.011719 L 32.515625 -29.742188 C 31.003906 -28.230469 29.488281 -26.96875 27.976562 -25.457031 C 24.449219 -22.433594 20.921875 -19.15625 17.140625 -16.132812 C 13.609375 -13.105469 9.828125 -10.585938 6.300781 -8.316406 C 4.285156 -7.308594 2.015625 -6.050781 -1.007812 -6.050781 C -1.007812 -6.050781 -1.261719 -6.050781 -1.261719 -6.050781 C -2.269531 -6.050781 -3.527344 -6.554688 -4.03125 -7.5625 C -4.789062 -8.316406 -5.042969 -9.578125 -4.789062 -10.585938 C -4.789062 -11.089844 -4.535156 -11.847656 -4.535156 -12.351562 C -4.285156 -13.609375 -4.03125 -14.871094 -3.78125 -16.132812 C -3.023438 -18.148438 -2.269531 -20.164062 -1.511719 -21.675781 C 1.511719 -28.230469 5.796875 -33.523438 10.585938 -39.320312 C 11.847656 -40.832031 13.105469 -42.09375 14.617188 -43.101562 C 15.375 -43.855469 16.132812 -44.363281 16.636719 -45.117188 C 22.433594 -50.914062 27.726562 -54.949219 33.269531 -58.222656 C 38.058594 -60.996094 42.597656 -63.011719 47.132812 -64.023438 C 49.65625 -64.777344 52.175781 -65.535156 54.949219 -65.535156 C 55.703125 -65.535156 56.460938 -65.28125 57.46875 -65.28125 C 58.222656 -65.03125 60.242188 -64.777344 61.5 -62.761719 C 62.257812 -61.5 62.507812 -59.988281 62.003906 -58.222656 C 61.753906 -57.214844 61.25 -56.460938 60.746094 -55.703125 C 60.746094 -55.453125 60.492188 -55.199219 60.492188 -54.949219 C 59.738281 -53.183594 59.988281 -51.417969 61.5 -50.410156 C 62.257812 -49.90625 63.011719 -49.402344 63.769531 -49.402344 C 64.273438 -49.402344 65.28125 -49.65625 66.039062 -50.410156 C 67.550781 -51.921875 68.808594 -54.191406 69.316406 -56.460938 C 69.566406 -58.726562 69.566406 -60.996094 69.316406 -63.515625 C 68.808594 -66.039062 67.296875 -68.304688 65.03125 -70.070312 C 62.257812 -71.835938 59.234375 -72.84375 55.453125 -72.84375 C 54.445312 -72.84375 52.929688 -72.84375 51.671875 -72.589844 C 43.605469 -71.332031 36.042969 -68.558594 29.488281 -64.527344 C 24.953125 -61.753906 20.417969 -58.476562 15.375 -53.9375 C 13.105469 -51.921875 10.839844 -49.90625 8.570312 -47.890625 C 7.5625 -46.882812 6.300781 -45.621094 5.292969 -44.613281 C 2.773438 -41.335938 0.503906 -38.5625 -1.511719 -36.042969 L -1.765625 -35.289062 C -3.527344 -33.269531 -5.042969 -31.003906 -6.050781 -28.984375 C -9.828125 -22.179688 -11.59375 -16.636719 -12.097656 -11.089844 C -12.351562 -8.570312 -12.097656 -6.554688 -11.34375 -4.789062 C -10.839844 -3.527344 -9.578125 -2.269531 -8.316406 -0.757812 C -8.066406 -0.503906 -7.8125 -0.253906 -7.5625 0 C -7.308594 0.253906 -7.058594 0.253906 -6.804688 0.253906 L -6.300781 0.503906 C -5.546875 0.757812 -4.535156 1.007812 -4.03125 1.007812 C -3.277344 1.007812 -2.773438 1.261719 -2.269531 1.261719 C -1.261719 1.261719 -0.503906 1.261719 0.253906 1.261719 Z M 0.253906 1.261719 "/></g></g></g><g fill="#000000" fill-opacity="1"><g transform="translate(397.951096, 202.889884)"><g><path d="M 52.679688 1.511719 C 56.460938 1.511719 59.484375 0.757812 62.003906 -0.757812 L 63.011719 -1.261719 C 64.023438 -2.015625 65.28125 -2.773438 66.289062 -3.277344 C 72.339844 -7.308594 77.378906 -11.089844 81.414062 -15.125 C 85.195312 -18.902344 88.722656 -22.433594 92 -25.960938 C 94.773438 -29.238281 98.046875 -32.515625 100.820312 -36.042969 C 101.578125 -37.050781 101.578125 -38.058594 101.578125 -38.816406 C 101.324219 -39.824219 100.820312 -40.582031 100.066406 -41.085938 C 99.5625 -41.839844 98.804688 -42.09375 98.046875 -42.09375 C 96.789062 -42.09375 95.527344 -41.335938 94.773438 -40.328125 C 93.257812 -38.5625 91.496094 -36.296875 89.480469 -34.027344 C 84.941406 -29.238281 79.648438 -23.441406 73.597656 -17.894531 C 69.0625 -13.863281 64.023438 -10.585938 59.738281 -8.066406 C 57.972656 -6.804688 56.207031 -6.300781 54.191406 -6.050781 C 53.9375 -6.050781 53.433594 -5.796875 53.183594 -5.796875 C 51.417969 -5.796875 49.90625 -6.554688 48.644531 -7.8125 C 47.636719 -9.324219 47.132812 -11.089844 47.386719 -12.855469 C 47.386719 -13.863281 47.890625 -14.871094 48.140625 -15.628906 L 48.140625 -15.878906 C 50.160156 -22.9375 53.6875 -29.488281 57.214844 -35.539062 C 58.980469 -38.5625 60.996094 -41.335938 63.011719 -44.109375 C 63.769531 -45.117188 64.527344 -46.125 65.28125 -47.132812 C 66.039062 -48.140625 67.046875 -49.402344 67.800781 -50.410156 C 68.808594 -51.671875 69.820312 -52.929688 70.828125 -54.445312 C 71.835938 -55.957031 73.09375 -57.71875 74.355469 -59.484375 C 76.121094 -62.257812 78.136719 -65.28125 80.40625 -68.054688 C 82.167969 -70.574219 84.1875 -73.09375 86.203125 -75.363281 C 87.460938 -76.875 88.976562 -78.640625 90.234375 -80.152344 C 92.503906 -83.175781 95.023438 -86.203125 97.292969 -89.226562 C 98.804688 -90.992188 100.066406 -92.753906 101.578125 -94.519531 C 102.332031 -95.527344 103.089844 -96.789062 104.097656 -97.796875 C 104.855469 -98.804688 105.863281 -100.066406 106.871094 -101.324219 C 107.375 -102.082031 108.128906 -102.835938 108.636719 -103.847656 C 109.894531 -105.359375 111.15625 -106.871094 112.414062 -108.636719 C 116.449219 -113.171875 120.230469 -118.214844 124.011719 -123.003906 C 124.765625 -124.011719 125.773438 -125.269531 126.53125 -126.53125 L 127.035156 -127.035156 C 128.546875 -128.800781 129.808594 -130.816406 131.570312 -132.578125 C 133.085938 -134.34375 133.335938 -136.359375 131.824219 -137.875 C 131.066406 -138.628906 130.058594 -139.132812 128.800781 -139.132812 C 127.789062 -139.132812 127.035156 -138.882812 126.277344 -138.125 C 124.261719 -136.359375 122.496094 -134.597656 120.480469 -132.328125 C 116.699219 -128.042969 112.917969 -123.253906 109.140625 -118.96875 L 106.617188 -115.945312 L 105.609375 -114.683594 C 103.59375 -112.414062 101.578125 -110.148438 99.5625 -107.878906 C 98.300781 -106.113281 97.292969 -104.601562 96.03125 -103.089844 C 94.773438 -101.324219 93.511719 -99.5625 92.25 -98.046875 C 91.242188 -97.039062 90.488281 -96.03125 89.730469 -95.023438 C 87.210938 -92 84.941406 -89.226562 83.175781 -86.203125 C 80.40625 -81.917969 77.378906 -77.378906 74.355469 -73.09375 C 73.597656 -71.835938 72.84375 -70.574219 71.835938 -69.316406 C 71.332031 -68.558594 70.574219 -67.800781 70.070312 -67.046875 C 69.820312 -66.792969 69.566406 -66.542969 69.316406 -66.289062 C 68.558594 -65.535156 67.550781 -65.03125 66.542969 -65.03125 C 66.542969 -65.03125 66.542969 -65.03125 66.289062 -65.03125 C 65.535156 -65.03125 64.527344 -65.28125 63.769531 -66.039062 C 60.746094 -69.0625 56.964844 -70.574219 52.175781 -70.828125 C 51.671875 -70.828125 50.914062 -70.828125 50.410156 -70.828125 C 45.621094 -70.828125 41.335938 -70.070312 37.554688 -68.304688 C 34.53125 -67.046875 31.507812 -65.535156 27.976562 -63.515625 C 26.214844 -62.507812 24.449219 -61.25 22.683594 -59.988281 C 21.929688 -59.484375 21.171875 -58.726562 20.417969 -58.222656 C 15.878906 -54.949219 11.847656 -51.167969 8.316406 -46.882812 L 8.066406 -46.628906 C 7.058594 -45.371094 6.050781 -44.363281 5.292969 -43.101562 C 4.535156 -42.09375 3.78125 -40.832031 3.023438 -39.574219 C 2.269531 -38.058594 1.261719 -36.296875 0.253906 -34.785156 C -3.023438 -30.246094 -5.042969 -25.960938 -6.300781 -21.929688 C -6.554688 -20.667969 -7.058594 -19.15625 -7.308594 -17.644531 C -7.5625 -16.382812 -7.8125 -14.871094 -8.316406 -13.609375 C -8.820312 -11.59375 -8.820312 -9.828125 -8.066406 -7.308594 C -7.5625 -5.546875 -6.554688 -3.527344 -5.546875 -2.269531 C -3.78125 -0.253906 -1.261719 0.757812 2.519531 1.261719 C 3.023438 1.261719 3.527344 1.261719 4.03125 1.261719 C 7.5625 1.261719 11.089844 0.253906 15.375 -2.269531 C 18.148438 -3.78125 20.667969 -5.292969 23.441406 -7.308594 C 24.195312 -7.8125 24.953125 -8.316406 25.960938 -8.820312 C 26.96875 -9.578125 27.976562 -10.335938 28.984375 -11.089844 C 29.742188 -11.847656 30.75 -12.601562 31.757812 -13.609375 C 32.261719 -14.113281 32.765625 -14.617188 33.269531 -15.125 C 34.027344 -15.628906 35.035156 -16.132812 35.792969 -16.132812 C 36.296875 -16.132812 36.800781 -15.878906 37.304688 -15.628906 C 38.5625 -15.125 39.574219 -13.863281 39.574219 -12.351562 C 39.574219 -12.097656 39.574219 -11.59375 39.574219 -11.34375 C 39.574219 -11.34375 39.574219 -11.089844 39.574219 -11.089844 C 39.824219 -10.335938 40.078125 -9.828125 40.078125 -9.074219 C 40.328125 -7.5625 40.582031 -6.300781 41.085938 -5.292969 C 41.335938 -4.789062 42.09375 -4.285156 42.847656 -3.527344 C 43.351562 -3.023438 44.109375 -2.269531 44.613281 -1.511719 C 46.378906 0.503906 48.898438 1.511719 52.175781 1.511719 C 52.425781 1.511719 52.425781 1.511719 52.679688 1.511719 Z M 49.90625 -63.515625 C 50.914062 -63.515625 52.175781 -63.515625 53.183594 -63.265625 C 54.695312 -63.011719 55.957031 -62.507812 56.964844 -62.003906 C 57.46875 -62.003906 57.71875 -61.753906 58.222656 -61.5 C 59.234375 -61.25 60.242188 -60.242188 60.492188 -58.980469 C 60.746094 -57.71875 60.492188 -56.460938 59.738281 -55.703125 L 56.460938 -51.671875 C 53.9375 -48.644531 51.417969 -45.621094 48.898438 -42.597656 C 48.140625 -41.839844 47.636719 -41.085938 46.882812 -40.078125 C 45.621094 -38.5625 44.363281 -37.050781 43.101562 -35.539062 C 36.800781 -28.734375 30.75 -22.433594 23.945312 -16.382812 C 21.425781 -14.367188 18.652344 -12.601562 15.878906 -11.089844 L 15.375 -10.839844 C 13.105469 -9.324219 10.839844 -8.066406 7.8125 -6.804688 C 6.554688 -6.300781 5.292969 -6.300781 4.285156 -6.050781 C 4.03125 -6.050781 3.78125 -6.050781 3.527344 -6.050781 C 3.277344 -6.050781 3.023438 -6.050781 3.023438 -6.050781 C 1.007812 -6.050781 -0.503906 -7.308594 -0.757812 -9.074219 C -0.757812 -9.324219 -0.757812 -9.324219 -1.007812 -9.578125 C -1.007812 -10.335938 -1.261719 -11.089844 -1.007812 -12.351562 C -0.503906 -15.628906 0.503906 -19.660156 2.269531 -23.691406 C 3.527344 -26.464844 5.042969 -28.734375 6.554688 -31.003906 C 7.5625 -32.515625 8.316406 -33.773438 9.324219 -35.289062 C 11.089844 -38.816406 13.359375 -42.09375 16.382812 -45.117188 C 19.15625 -47.386719 22.179688 -50.160156 25.457031 -52.929688 C 31.003906 -57.214844 35.539062 -59.988281 40.328125 -61.753906 C 43.605469 -63.011719 46.882812 -63.515625 49.90625 -63.515625 Z M 49.90625 -63.515625 "/></g></g></g><g fill="#000000" fill-opacity="1"><g transform="translate(490.202537, 202.889884)"><g><path d="M 13.105469 2.773438 C 17.644531 2.773438 20.921875 2.269531 23.945312 1.261719 C 24.953125 1.007812 25.960938 0.757812 26.71875 0.253906 C 28.984375 -0.253906 31.003906 -1.007812 33.019531 -1.765625 C 37.304688 -3.78125 41.589844 -5.796875 45.621094 -7.8125 L 46.628906 -8.316406 C 48.394531 -9.324219 50.664062 -10.585938 52.929688 -12.097656 C 55.199219 -13.359375 57.46875 -15.125 60.242188 -17.390625 C 62.507812 -19.15625 65.535156 -21.675781 68.304688 -24.195312 C 70.324219 -25.960938 72.085938 -27.976562 74.105469 -29.742188 C 74.859375 -30.75 75.867188 -31.757812 76.875 -32.515625 C 77.128906 -33.019531 77.632812 -33.269531 77.882812 -33.523438 C 78.136719 -33.773438 78.640625 -34.027344 78.640625 -34.277344 C 79.902344 -35.539062 79.902344 -37.808594 78.640625 -39.066406 C 77.882812 -39.824219 76.875 -40.328125 75.867188 -40.328125 C 75.363281 -40.328125 74.609375 -40.328125 73.851562 -39.824219 C 72.085938 -38.3125 70.324219 -36.800781 68.558594 -35.035156 C 68.304688 -34.785156 68.054688 -34.53125 67.800781 -34.027344 C 66.792969 -33.269531 66.039062 -32.515625 65.28125 -31.507812 C 63.265625 -29.488281 61.25 -27.222656 58.726562 -25.457031 C 56.460938 -24.195312 54.445312 -22.433594 52.425781 -20.921875 C 49.402344 -18.398438 46.628906 -16.382812 43.351562 -14.871094 C 42.847656 -14.617188 42.597656 -14.617188 42.09375 -14.367188 C 41.839844 -14.367188 41.335938 -14.113281 41.085938 -13.863281 C 35.035156 -10.585938 29.742188 -8.316406 24.703125 -6.554688 C 20.417969 -5.292969 16.636719 -4.535156 12.855469 -4.535156 C 10.335938 -4.535156 8.066406 -4.789062 5.796875 -5.292969 C 3.023438 -6.050781 1.261719 -7.8125 0.503906 -10.335938 C -0.503906 -13.105469 0 -15.628906 0.503906 -17.644531 C 0.503906 -18.398438 0.757812 -19.15625 0.757812 -19.914062 C 1.007812 -21.675781 2.269531 -23.1875 3.78125 -23.441406 C 4.789062 -23.441406 5.546875 -23.691406 6.300781 -23.945312 C 7.8125 -24.195312 9.324219 -24.449219 10.839844 -24.703125 L 11.59375 -24.953125 C 15.628906 -25.960938 19.914062 -26.96875 23.945312 -28.480469 C 26.71875 -29.488281 29.742188 -30.75 33.269531 -32.515625 C 35.792969 -34.027344 38.5625 -35.539062 41.335938 -37.304688 L 42.09375 -38.058594 C 45.371094 -40.328125 48.644531 -42.597656 51.417969 -45.117188 C 54.191406 -47.890625 56.460938 -50.410156 58.476562 -52.929688 C 61.25 -56.964844 63.265625 -60.996094 64.273438 -65.535156 C 64.273438 -66.039062 64.273438 -66.792969 64.023438 -67.550781 C 64.023438 -67.800781 64.023438 -68.304688 63.769531 -68.558594 C 63.769531 -69.0625 63.515625 -69.566406 63.515625 -70.324219 C 63.265625 -71.078125 63.011719 -71.835938 61.5 -73.09375 C 59.484375 -74.859375 57.214844 -75.867188 54.695312 -75.867188 C 54.191406 -75.867188 53.9375 -75.867188 53.433594 -76.121094 C 52.425781 -76.121094 51.671875 -76.121094 50.914062 -76.121094 C 49.402344 -76.121094 48.394531 -75.867188 47.386719 -75.617188 C 45.621094 -74.609375 43.605469 -73.851562 41.839844 -73.09375 C 39.320312 -72.085938 37.050781 -71.078125 34.53125 -69.820312 C 30.246094 -67.550781 26.464844 -65.03125 23.691406 -62.507812 C 22.433594 -61.25 21.171875 -60.242188 19.914062 -59.234375 C 18.652344 -58.222656 17.644531 -57.46875 16.636719 -56.460938 C 16.382812 -56.207031 16.132812 -55.957031 15.628906 -55.703125 C 13.609375 -53.6875 11.59375 -51.921875 9.828125 -50.160156 C 6.554688 -46.628906 3.527344 -42.847656 0.757812 -38.5625 C -1.007812 -35.792969 -3.023438 -32.765625 -4.03125 -29.742188 C -6.554688 -22.9375 -7.8125 -16.886719 -7.308594 -11.089844 C -6.804688 -7.5625 -5.292969 -4.285156 -2.773438 -1.511719 C -2.015625 -1.007812 -0.503906 0.757812 1.007812 1.261719 C 3.527344 2.015625 6.300781 2.519531 9.074219 2.519531 C 10.585938 2.773438 11.847656 2.773438 13.105469 2.773438 Z M 52.679688 -68.808594 C 53.6875 -68.808594 54.949219 -68.304688 55.453125 -67.550781 C 56.460938 -66.542969 56.710938 -65.03125 56.207031 -63.769531 C 54.695312 -60.242188 52.929688 -57.214844 49.90625 -54.191406 C 44.613281 -48.140625 37.554688 -43.101562 27.976562 -38.058594 C 25.960938 -37.050781 23.945312 -36.296875 21.929688 -35.539062 C 21.171875 -35.289062 20.417969 -35.035156 19.914062 -34.785156 C 18.652344 -34.53125 17.390625 -34.027344 16.132812 -33.773438 C 15.878906 -33.523438 15.375 -33.269531 14.871094 -33.269531 C 14.367188 -33.019531 14.113281 -33.019531 13.609375 -33.019531 C 12.351562 -33.019531 11.34375 -33.523438 10.585938 -34.53125 C 9.578125 -35.792969 9.578125 -37.554688 10.335938 -38.816406 C 13.105469 -43.351562 16.636719 -47.132812 20.921875 -50.410156 C 22.683594 -51.921875 24.703125 -53.433594 26.96875 -55.703125 C 31.507812 -59.988281 37.050781 -63.265625 44.109375 -66.289062 C 44.613281 -66.542969 45.117188 -66.792969 45.621094 -67.046875 C 46.628906 -67.296875 47.636719 -67.800781 48.644531 -68.304688 C 49.402344 -68.558594 50.410156 -68.558594 51.167969 -68.808594 C 51.417969 -68.808594 51.671875 -68.808594 51.921875 -68.808594 C 52.175781 -68.808594 52.425781 -68.808594 52.679688 -68.808594 Z M 52.679688 -68.808594 "/></g></g></g><g fill="#000000" fill-opacity="1"><g transform="translate(561.029444, 202.889884)"><g><path d="M 5.292969 0.503906 C 7.058594 0.503906 9.074219 0 10.839844 -0.757812 C 15.628906 -2.519531 19.40625 -4.535156 23.1875 -7.308594 C 29.238281 -11.59375 34.785156 -16.636719 40.078125 -21.929688 L 41.589844 -23.1875 C 44.363281 -25.710938 47.132812 -28.734375 49.65625 -31.757812 C 50.914062 -33.019531 52.175781 -34.277344 53.433594 -35.792969 C 54.949219 -37.304688 54.949219 -39.320312 53.6875 -40.832031 C 52.929688 -41.589844 52.175781 -42.09375 50.914062 -42.09375 C 50.160156 -42.09375 49.402344 -41.839844 48.644531 -41.085938 C 48.394531 -41.085938 48.140625 -40.832031 47.890625 -40.582031 C 47.132812 -40.078125 46.628906 -39.824219 46.378906 -39.320312 C 45.875 -39.066406 45.371094 -38.5625 45.117188 -38.3125 C 43.855469 -37.304688 42.847656 -36.296875 42.34375 -35.539062 C 40.582031 -32.515625 38.3125 -30.246094 36.042969 -28.230469 C 35.792969 -27.726562 35.539062 -27.472656 35.035156 -27.222656 C 33.019531 -24.953125 30.5 -22.683594 27.222656 -19.914062 C 23.945312 -17.140625 20.417969 -14.113281 16.382812 -11.59375 C 14.367188 -10.082031 10.839844 -8.066406 6.300781 -7.058594 C 6.050781 -7.058594 5.796875 -7.058594 5.546875 -7.058594 C 4.535156 -7.058594 3.78125 -7.308594 3.023438 -8.066406 C 2.015625 -8.820312 1.765625 -9.828125 1.765625 -11.089844 C 1.765625 -11.34375 1.765625 -11.847656 1.765625 -12.097656 C 1.765625 -12.855469 1.765625 -13.359375 2.015625 -14.113281 C 2.015625 -14.871094 2.269531 -15.628906 2.269531 -16.132812 C 2.519531 -16.886719 2.773438 -17.894531 2.773438 -18.398438 C 3.277344 -23.1875 5.042969 -27.472656 6.554688 -31.507812 C 6.804688 -32.261719 7.308594 -33.019531 7.5625 -33.773438 C 8.820312 -36.800781 11.089844 -38.3125 12.855469 -39.066406 L 13.359375 -39.320312 C 16.132812 -40.832031 18.652344 -42.09375 20.921875 -43.605469 C 24.953125 -46.378906 28.734375 -49.148438 32.261719 -52.175781 C 36.042969 -55.199219 39.574219 -58.726562 43.101562 -62.003906 C 44.867188 -63.769531 46.628906 -65.535156 48.394531 -67.296875 C 49.148438 -68.304688 50.160156 -69.316406 50.914062 -70.070312 C 51.417969 -70.828125 52.175781 -71.332031 52.679688 -71.835938 C 53.433594 -72.589844 54.191406 -73.347656 54.949219 -74.355469 L 56.207031 -75.617188 C 60.492188 -80.910156 64.777344 -85.949219 68.808594 -91.242188 C 69.0625 -91.746094 69.566406 -92.25 70.070312 -92.753906 C 73.597656 -97.542969 77.128906 -102.082031 79.648438 -107.121094 C 84.691406 -116.699219 87.460938 -124.261719 88.976562 -131.570312 C 89.480469 -133.839844 89.480469 -135.855469 88.976562 -138.628906 C 88.46875 -140.644531 87.210938 -142.410156 85.445312 -143.921875 C 85.195312 -144.175781 83.933594 -144.679688 81.664062 -144.679688 C 79.902344 -144.679688 78.386719 -144.175781 78.136719 -143.921875 C 73.347656 -140.140625 69.566406 -136.359375 66.289062 -132.578125 C 64.777344 -131.066406 63.515625 -129.554688 62.257812 -128.042969 L 61.5 -126.78125 C 60.746094 -126.027344 59.988281 -125.269531 59.484375 -124.261719 C 57.46875 -122.246094 55.957031 -120.230469 54.191406 -117.960938 C 52.929688 -116.195312 51.417969 -113.929688 50.160156 -112.164062 C 49.148438 -110.398438 48.140625 -108.886719 46.882812 -107.375 C 45.621094 -105.359375 44.109375 -103.59375 42.847656 -101.578125 C 41.839844 -100.316406 40.832031 -99.058594 39.824219 -97.542969 C 36.546875 -93.257812 33.269531 -88.722656 29.996094 -84.1875 C 28.230469 -81.917969 26.71875 -79.648438 24.953125 -77.378906 C 24.449219 -76.371094 23.691406 -75.617188 22.9375 -74.609375 C 21.675781 -72.84375 20.164062 -70.828125 18.902344 -69.0625 C 17.894531 -67.550781 16.886719 -65.785156 15.878906 -64.023438 C 15.125 -63.011719 14.367188 -61.753906 13.609375 -60.746094 C 13.105469 -60.242188 12.855469 -59.484375 12.351562 -59.234375 C 12.097656 -58.726562 11.59375 -58.222656 11.34375 -57.71875 C 7.8125 -50.664062 4.285156 -43.605469 1.511719 -38.3125 C -1.007812 -33.269531 -2.773438 -28.480469 -3.78125 -23.691406 C -4.789062 -19.15625 -5.546875 -14.367188 -5.546875 -9.578125 C -5.546875 -4.535156 -3.277344 -1.511719 1.511719 0 C 2.773438 0.253906 4.03125 0.503906 5.292969 0.503906 Z M 75.363281 -130.058594 C 75.867188 -130.058594 76.121094 -130.058594 76.625 -129.808594 C 77.882812 -129.554688 78.894531 -128.296875 79.144531 -127.035156 C 79.648438 -123.757812 78.640625 -121.742188 77.882812 -120.230469 C 77.882812 -119.976562 77.632812 -119.726562 77.632812 -119.472656 C 74.355469 -112.164062 71.332031 -106.617188 67.550781 -101.578125 L 66.039062 -99.8125 C 60.492188 -92.503906 54.949219 -85.195312 48.644531 -78.386719 C 45.621094 -74.859375 42.34375 -71.332031 39.066406 -68.304688 C 37.808594 -67.046875 36.546875 -65.785156 35.289062 -64.527344 C 34.277344 -63.265625 32.765625 -62.761719 31.003906 -62.761719 C 29.488281 -62.761719 28.230469 -63.515625 27.472656 -64.777344 C 26.96875 -66.039062 26.96875 -67.550781 27.976562 -68.558594 C 28.480469 -69.566406 28.984375 -70.324219 29.488281 -71.078125 C 31.003906 -72.84375 32.261719 -74.609375 33.523438 -76.625 C 34.53125 -77.632812 35.539062 -78.894531 36.296875 -80.152344 C 37.554688 -81.664062 38.816406 -83.429688 39.824219 -84.941406 C 43.605469 -90.234375 47.132812 -94.773438 50.160156 -99.058594 C 51.921875 -101.578125 53.433594 -104.097656 55.199219 -106.617188 C 56.460938 -108.382812 57.71875 -110.148438 58.980469 -112.164062 L 59.234375 -112.164062 C 61.753906 -115.945312 64.273438 -119.472656 67.800781 -122.75 C 68.304688 -123.507812 68.808594 -124.261719 69.316406 -125.019531 C 69.820312 -125.523438 70.070312 -126.027344 70.574219 -126.53125 C 71.078125 -127.285156 71.582031 -127.539062 72.085938 -128.042969 C 72.085938 -128.296875 72.339844 -128.546875 72.589844 -128.800781 C 73.347656 -129.554688 74.355469 -130.058594 75.363281 -130.058594 Z M 75.363281 -130.058594 "/></g></g></g><g fill="#000000" fill-opacity="1"><g transform="translate(607.407239, 202.889884)"><g><path d="M 1.007812 2.015625 C 2.269531 2.015625 3.277344 1.765625 4.285156 1.511719 C 5.292969 1.007812 6.300781 0.757812 7.058594 0.503906 C 8.066406 0.253906 9.074219 -0.253906 10.082031 -0.503906 C 13.609375 -1.765625 16.132812 -3.277344 18.148438 -4.789062 C 21.425781 -7.5625 25.457031 -10.839844 28.984375 -14.367188 C 33.269531 -18.398438 37.808594 -23.1875 43.101562 -28.734375 C 43.855469 -29.742188 44.109375 -30.75 43.855469 -31.253906 C 43.855469 -32.261719 43.351562 -33.269531 42.597656 -34.027344 C 41.839844 -34.53125 41.085938 -34.785156 40.328125 -34.785156 C 39.320312 -34.785156 38.058594 -34.277344 37.304688 -33.269531 C 32.515625 -28.480469 27.726562 -23.441406 22.179688 -17.894531 C 20.921875 -16.886719 19.660156 -15.878906 18.652344 -14.871094 C 17.644531 -14.113281 16.636719 -13.359375 15.878906 -12.601562 C 12.351562 -9.074219 8.066406 -7.308594 4.285156 -6.050781 C 3.277344 -5.796875 2.519531 -5.796875 2.015625 -5.796875 C 1.765625 -5.796875 1.511719 -5.796875 1.261719 -5.546875 C 1.261719 -5.546875 1.007812 -5.546875 1.007812 -5.546875 C -0.253906 -5.546875 -1.261719 -6.050781 -2.015625 -7.058594 C -2.773438 -8.066406 -3.023438 -9.324219 -2.773438 -10.335938 C -2.519531 -11.089844 -2.269531 -11.847656 -2.269531 -12.601562 C -1.765625 -14.367188 -1.261719 -16.132812 -0.503906 -17.894531 C 1.765625 -22.683594 4.03125 -27.726562 7.058594 -32.515625 C 9.828125 -37.554688 13.105469 -42.34375 17.140625 -47.890625 C 20.667969 -52.929688 24.449219 -57.46875 28.230469 -62.003906 L 28.734375 -62.507812 C 29.996094 -64.023438 30.5 -66.542969 28.480469 -68.054688 C 27.726562 -68.808594 26.96875 -69.0625 26.214844 -69.0625 C 24.953125 -69.0625 23.945312 -68.304688 22.9375 -67.296875 C 21.675781 -65.535156 20.164062 -63.769531 18.652344 -62.003906 C 17.894531 -60.996094 17.390625 -60.242188 16.636719 -59.484375 C 15.375 -57.972656 14.367188 -56.710938 13.359375 -55.453125 C 9.324219 -49.65625 6.300781 -45.117188 3.527344 -40.582031 C 0 -35.289062 -2.519531 -30.5 -4.789062 -26.214844 C -7.058594 -22.179688 -8.570312 -17.894531 -9.324219 -13.359375 C -10.335938 -9.074219 -10.585938 -6.050781 -9.074219 -3.023438 C -7.5625 -0.253906 -5.292969 1.007812 -1.511719 1.765625 C -0.757812 2.015625 0.253906 2.015625 1.007812 2.015625 Z M 45.875 -91.746094 C 46.628906 -91.746094 47.386719 -91.746094 47.890625 -92.25 C 48.140625 -92.25 48.394531 -92.503906 48.644531 -92.503906 C 49.65625 -93.007812 50.410156 -93.511719 50.914062 -93.765625 C 52.175781 -95.023438 53.9375 -96.535156 55.199219 -98.300781 C 55.453125 -98.554688 55.703125 -99.308594 55.703125 -99.5625 C 55.703125 -99.8125 55.703125 -100.066406 55.957031 -100.316406 C 55.453125 -102.082031 54.695312 -102.585938 54.191406 -103.089844 C 52.929688 -103.59375 51.921875 -103.847656 50.914062 -103.847656 C 49.90625 -103.847656 49.148438 -103.59375 48.140625 -103.34375 C 45.621094 -102.082031 43.605469 -100.570312 41.839844 -98.554688 C 40.328125 -96.789062 40.328125 -94.519531 41.589844 -93.257812 C 42.34375 -92.25 44.109375 -91.746094 45.875 -91.746094 Z M 45.875 -91.746094 "/></g></g></g><g fill="#000000" fill-opacity="1"><g transform="translate(645.719315, 202.889884)"><g><path d="M 50.410156 0.503906 C 50.410156 0.503906 50.664062 0.503906 50.664062 0.503906 C 51.921875 0.503906 52.929688 0.503906 53.9375 0.503906 C 54.949219 0.503906 55.703125 0.503906 56.460938 0.503906 C 59.484375 0.253906 62.507812 -0.757812 66.289062 -3.023438 L 67.046875 -3.527344 C 70.070312 -5.546875 73.09375 -7.5625 75.617188 -10.082031 C 76.625 -10.839844 77.632812 -11.847656 78.640625 -12.601562 C 80.40625 -14.367188 82.167969 -16.132812 83.933594 -17.894531 C 85.699219 -19.660156 87.210938 -21.675781 88.976562 -23.945312 C 89.730469 -24.703125 90.234375 -25.457031 90.992188 -26.214844 C 91.496094 -26.71875 92 -27.222656 92.503906 -27.976562 C 94.015625 -29.742188 95.277344 -31.507812 96.789062 -33.269531 C 98.046875 -34.785156 97.542969 -37.050781 96.03125 -38.3125 C 95.277344 -38.816406 94.519531 -39.066406 93.765625 -39.066406 C 92.753906 -39.066406 91.496094 -38.5625 90.738281 -37.554688 C 89.730469 -36.296875 88.722656 -35.035156 87.714844 -33.773438 C 85.699219 -31.253906 83.683594 -28.734375 81.414062 -26.214844 C 77.882812 -22.179688 74.859375 -19.15625 71.835938 -16.132812 C 69.316406 -13.863281 66.542969 -12.097656 63.769531 -10.335938 L 63.265625 -9.828125 C 60.746094 -8.316406 57.71875 -6.554688 53.9375 -6.554688 C 53.433594 -6.554688 52.929688 -6.804688 52.679688 -6.804688 C 51.417969 -6.804688 50.410156 -7.5625 49.65625 -8.316406 C 49.148438 -9.324219 48.898438 -10.585938 49.402344 -11.59375 C 49.65625 -12.351562 49.90625 -13.105469 50.160156 -13.609375 C 51.671875 -18.398438 53.183594 -22.9375 55.453125 -27.472656 C 58.222656 -32.515625 61.5 -38.816406 63.515625 -45.371094 C 64.527344 -48.394531 64.777344 -51.167969 64.023438 -54.191406 C 64.023438 -54.695312 63.769531 -55.199219 63.515625 -55.453125 C 62.003906 -57.972656 58.222656 -59.738281 55.199219 -59.738281 C 54.695312 -59.738281 54.191406 -59.738281 53.9375 -59.738281 C 51.921875 -59.234375 50.160156 -58.726562 48.140625 -58.222656 C 42.34375 -56.710938 37.050781 -54.191406 31.507812 -50.160156 C 29.742188 -48.898438 27.726562 -47.636719 25.960938 -46.378906 C 24.953125 -45.875 23.945312 -45.117188 23.1875 -44.613281 C 22.433594 -44.109375 21.675781 -43.855469 20.921875 -43.855469 C 20.164062 -43.855469 19.40625 -44.109375 18.902344 -44.613281 C 17.644531 -45.371094 16.886719 -46.882812 17.140625 -48.394531 C 17.390625 -48.898438 17.390625 -49.148438 17.390625 -49.402344 C 17.644531 -49.90625 17.644531 -50.160156 17.644531 -50.410156 C 17.894531 -52.425781 16.886719 -54.191406 15.375 -54.695312 C 14.871094 -54.949219 14.367188 -54.949219 13.863281 -54.949219 C 12.601562 -54.949219 11.34375 -54.191406 10.839844 -53.183594 C 9.074219 -48.898438 6.554688 -45.117188 4.03125 -41.589844 C 3.277344 -40.328125 2.269531 -39.066406 1.511719 -37.808594 C 0.757812 -36.800781 0 -35.792969 -0.757812 -34.785156 C -1.765625 -33.523438 -2.773438 -32.261719 -3.277344 -31.003906 C -5.042969 -27.726562 -7.308594 -24.703125 -9.324219 -21.675781 C -10.585938 -19.914062 -11.847656 -18.148438 -13.105469 -16.382812 C -13.863281 -14.871094 -14.871094 -13.609375 -15.628906 -12.351562 C -16.886719 -10.082031 -18.398438 -8.066406 -19.40625 -6.050781 C -20.164062 -5.042969 -20.164062 -3.78125 -19.660156 -2.519531 C -19.15625 -1.765625 -18.148438 -1.007812 -17.140625 -0.757812 C -16.636719 -0.757812 -16.382812 -0.757812 -15.878906 -0.757812 C -14.113281 -0.757812 -12.351562 -1.261719 -10.839844 -2.269531 C -8.820312 -3.78125 -7.058594 -5.546875 -5.292969 -7.308594 C -4.789062 -7.5625 -4.535156 -8.066406 -4.285156 -8.316406 C -3.023438 -9.324219 -1.765625 -10.839844 -0.503906 -11.847656 C 0.757812 -13.359375 2.269531 -14.617188 3.527344 -16.132812 C 5.042969 -17.644531 6.804688 -18.902344 8.316406 -20.417969 C 10.082031 -22.179688 12.351562 -23.945312 14.113281 -25.960938 L 14.871094 -26.71875 C 20.921875 -32.515625 26.96875 -38.5625 34.277344 -43.351562 C 38.816406 -46.378906 43.605469 -49.402344 49.402344 -50.914062 C 49.65625 -51.167969 50.160156 -51.167969 50.664062 -51.417969 C 50.914062 -51.417969 51.167969 -51.671875 51.417969 -51.671875 C 51.921875 -51.671875 52.175781 -51.671875 52.425781 -51.671875 C 53.433594 -51.671875 54.191406 -51.417969 54.949219 -50.914062 C 55.957031 -50.160156 56.460938 -48.898438 56.207031 -47.636719 C 56.207031 -47.386719 56.207031 -47.386719 56.207031 -47.386719 C 56.207031 -46.882812 56.207031 -46.125 55.957031 -45.371094 C 53.6875 -40.832031 51.417969 -36.042969 48.898438 -30.75 C 48.898438 -30.5 48.644531 -29.996094 48.394531 -29.742188 C 48.140625 -29.238281 47.890625 -28.734375 47.890625 -28.480469 C 47.636719 -27.976562 47.386719 -27.472656 47.132812 -26.71875 C 46.125 -24.449219 45.371094 -22.179688 44.363281 -20.164062 C 44.109375 -19.40625 43.855469 -18.652344 43.605469 -17.894531 C 42.34375 -14.617188 41.335938 -11.847656 41.589844 -8.820312 C 41.839844 -6.554688 42.847656 -4.285156 44.613281 -1.765625 C 45.117188 -1.511719 45.371094 -1.261719 45.875 -1.261719 C 47.636719 -0.253906 48.898438 0.503906 50.410156 0.503906 Z M 50.410156 0.503906 "/></g></g></g><g fill="#000000" fill-opacity="1"><g transform="translate(737.718721, 202.889884)"><g><path d="M 13.105469 2.773438 C 17.644531 2.773438 20.921875 2.269531 23.945312 1.261719 C 24.953125 1.007812 25.960938 0.757812 26.71875 0.253906 C 28.984375 -0.253906 31.003906 -1.007812 33.019531 -1.765625 C 37.304688 -3.78125 41.589844 -5.796875 45.621094 -7.8125 L 46.628906 -8.316406 C 48.394531 -9.324219 50.664062 -10.585938 52.929688 -12.097656 C 55.199219 -13.359375 57.46875 -15.125 60.242188 -17.390625 C 62.507812 -19.15625 65.535156 -21.675781 68.304688 -24.195312 C 70.324219 -25.960938 72.085938 -27.976562 74.105469 -29.742188 C 74.859375 -30.75 75.867188 -31.757812 76.875 -32.515625 C 77.128906 -33.019531 77.632812 -33.269531 77.882812 -33.523438 C 78.136719 -33.773438 78.640625 -34.027344 78.640625 -34.277344 C 79.902344 -35.539062 79.902344 -37.808594 78.640625 -39.066406 C 77.882812 -39.824219 76.875 -40.328125 75.867188 -40.328125 C 75.363281 -40.328125 74.609375 -40.328125 73.851562 -39.824219 C 72.085938 -38.3125 70.324219 -36.800781 68.558594 -35.035156 C 68.304688 -34.785156 68.054688 -34.53125 67.800781 -34.027344 C 66.792969 -33.269531 66.039062 -32.515625 65.28125 -31.507812 C 63.265625 -29.488281 61.25 -27.222656 58.726562 -25.457031 C 56.460938 -24.195312 54.445312 -22.433594 52.425781 -20.921875 C 49.402344 -18.398438 46.628906 -16.382812 43.351562 -14.871094 C 42.847656 -14.617188 42.597656 -14.617188 42.09375 -14.367188 C 41.839844 -14.367188 41.335938 -14.113281 41.085938 -13.863281 C 35.035156 -10.585938 29.742188 -8.316406 24.703125 -6.554688 C 20.417969 -5.292969 16.636719 -4.535156 12.855469 -4.535156 C 10.335938 -4.535156 8.066406 -4.789062 5.796875 -5.292969 C 3.023438 -6.050781 1.261719 -7.8125 0.503906 -10.335938 C -0.503906 -13.105469 0 -15.628906 0.503906 -17.644531 C 0.503906 -18.398438 0.757812 -19.15625 0.757812 -19.914062 C 1.007812 -21.675781 2.269531 -23.1875 3.78125 -23.441406 C 4.789062 -23.441406 5.546875 -23.691406 6.300781 -23.945312 C 7.8125 -24.195312 9.324219 -24.449219 10.839844 -24.703125 L 11.59375 -24.953125 C 15.628906 -25.960938 19.914062 -26.96875 23.945312 -28.480469 C 26.71875 -29.488281 29.742188 -30.75 33.269531 -32.515625 C 35.792969 -34.027344 38.5625 -35.539062 41.335938 -37.304688 L 42.09375 -38.058594 C 45.371094 -40.328125 48.644531 -42.597656 51.417969 -45.117188 C 54.191406 -47.890625 56.460938 -50.410156 58.476562 -52.929688 C 61.25 -56.964844 63.265625 -60.996094 64.273438 -65.535156 C 64.273438 -66.039062 64.273438 -66.792969 64.023438 -67.550781 C 64.023438 -67.800781 64.023438 -68.304688 63.769531 -68.558594 C 63.769531 -69.0625 63.515625 -69.566406 63.515625 -70.324219 C 63.265625 -71.078125 63.011719 -71.835938 61.5 -73.09375 C 59.484375 -74.859375 57.214844 -75.867188 54.695312 -75.867188 C 54.191406 -75.867188 53.9375 -75.867188 53.433594 -76.121094 C 52.425781 -76.121094 51.671875 -76.121094 50.914062 -76.121094 C 49.402344 -76.121094 48.394531 -75.867188 47.386719 -75.617188 C 45.621094 -74.609375 43.605469 -73.851562 41.839844 -73.09375 C 39.320312 -72.085938 37.050781 -71.078125 34.53125 -69.820312 C 30.246094 -67.550781 26.464844 -65.03125 23.691406 -62.507812 C 22.433594 -61.25 21.171875 -60.242188 19.914062 -59.234375 C 18.652344 -58.222656 17.644531 -57.46875 16.636719 -56.460938 C 16.382812 -56.207031 16.132812 -55.957031 15.628906 -55.703125 C 13.609375 -53.6875 11.59375 -51.921875 9.828125 -50.160156 C 6.554688 -46.628906 3.527344 -42.847656 0.757812 -38.5625 C -1.007812 -35.792969 -3.023438 -32.765625 -4.03125 -29.742188 C -6.554688 -22.9375 -7.8125 -16.886719 -7.308594 -11.089844 C -6.804688 -7.5625 -5.292969 -4.285156 -2.773438 -1.511719 C -2.015625 -1.007812 -0.503906 0.757812 1.007812 1.261719 C 3.527344 2.015625 6.300781 2.519531 9.074219 2.519531 C 10.585938 2.773438 11.847656 2.773438 13.105469 2.773438 Z M 52.679688 -68.808594 C 53.6875 -68.808594 54.949219 -68.304688 55.453125 -67.550781 C 56.460938 -66.542969 56.710938 -65.03125 56.207031 -63.769531 C 54.695312 -60.242188 52.929688 -57.214844 49.90625 -54.191406 C 44.613281 -48.140625 37.554688 -43.101562 27.976562 -38.058594 C 25.960938 -37.050781 23.945312 -36.296875 21.929688 -35.539062 C 21.171875 -35.289062 20.417969 -35.035156 19.914062 -34.785156 C 18.652344 -34.53125 17.390625 -34.027344 16.132812 -33.773438 C 15.878906 -33.523438 15.375 -33.269531 14.871094 -33.269531 C 14.367188 -33.019531 14.113281 -33.019531 13.609375 -33.019531 C 12.351562 -33.019531 11.34375 -33.523438 10.585938 -34.53125 C 9.578125 -35.792969 9.578125 -37.554688 10.335938 -38.816406 C 13.105469 -43.351562 16.636719 -47.132812 20.921875 -50.410156 C 22.683594 -51.921875 24.703125 -53.433594 26.96875 -55.703125 C 31.507812 -59.988281 37.050781 -63.265625 44.109375 -66.289062 C 44.613281 -66.542969 45.117188 -66.792969 45.621094 -67.046875 C 46.628906 -67.296875 47.636719 -67.800781 48.644531 -68.304688 C 49.402344 -68.558594 50.410156 -68.558594 51.167969 -68.808594 C 51.417969 -68.808594 51.671875 -68.808594 51.921875 -68.808594 C 52.175781 -68.808594 52.425781 -68.808594 52.679688 -68.808594 Z M 52.679688 -68.808594 "/></g></g></g></svg>